<svg width="44" height="44" viewBox="0 0 44 44" fill="none" xmlns="http://www.w3.org/2000/svg">
<rect width="44" height="44" rx="22" fill="#0090F8"/>
<path d="M26.41 14C28.35 14 29.91 15.57 29.91 17.5C29.91 19.39 28.41 20.93 26.54 21C26.4536 20.99 26.3664 20.99 26.28 21M28.34 30C29.06 29.85 29.74 29.56 30.3 29.13C31.86 27.96 31.86 26.03 30.3 24.86C29.75 24.44 29.08 24.16 28.37 24M19.16 20.87C19.06 20.86 18.94 20.86 18.83 20.87C17.6822 20.831 16.5946 20.3468 15.7976 19.5199C15.0006 18.6931 14.5567 17.5884 14.56 16.44C14.56 13.99 16.54 12 19 12C20.1762 11.9788 21.3127 12.4257 22.1595 13.2424C23.0062 14.0591 23.4938 15.1788 23.515 16.355C23.5362 17.5312 23.0893 18.6677 22.2726 19.5144C21.4559 20.3612 20.3362 20.8488 19.16 20.87ZM14.16 24.56C11.74 26.18 11.74 28.82 14.16 30.43C16.91 32.27 21.42 32.27 24.17 30.43C26.59 28.81 26.59 26.17 24.17 24.56C21.43 22.73 16.92 22.73 14.16 24.56Z" stroke="white" stroke-width="1.5" stroke-linecap="round" stroke-linejoin="round"/>
</svg>
