<svg width="24" height="24" viewBox="0 0 24 24" fill="none" xmlns="http://www.w3.org/2000/svg">
<path d="M21.01 11.22V15.71C21.01 20.2 19.22 22 14.72 22H9.33004C8.75004 22 8.22004 21.97 7.73004 21.9M3.04004 15.52V11.22M12.03 12C13.86 12 15.21 10.51 15.03 8.68L14.36 2H9.69004L9.02004 8.68C8.84004 10.51 10.2 12 12.03 12Z" stroke="white" stroke-width="1.5" stroke-linecap="round" stroke-linejoin="round"/>
<path d="M18.33 12C20.35 12 21.83 10.36 21.63 8.35L21.35 5.6C20.99 3 19.99 2 17.37 2H14.32L15.02 9.01C15.2 10.66 16.68 12 18.33 12ZM5.67004 12C7.32004 12 8.81004 10.66 8.97004 9.01L9.19004 6.8L9.67004 2H6.62004C4.00004 2 3.00004 3 2.64004 5.6L2.36004 8.35C2.16004 10.36 3.65004 12 5.67004 12Z" stroke="white" stroke-width="1.5" stroke-linecap="round" stroke-linejoin="round"/>
<path d="M6.49 18.98H3.51M9 19C9 19.75 8.79 20.46 8.42 21.06C8.23 21.38 8 21.67 7.73 21.9C7.7 21.94 7.67 21.97 7.63 22C6.93 22.63 6.01 23 5 23C3.78 23 2.69 22.45 1.97 21.59C1.95 21.56 1.92 21.54 1.9 21.51C1.78 21.37 1.67 21.22 1.58 21.06C1.21 20.46 1 19.75 1 19C1 17.74 1.58 16.61 2.5 15.88C2.67 15.74 2.85 15.62 3.04 15.52C3.62 15.19 4.29 15 5 15C6 15 6.9 15.36 7.6 15.97C7.72 16.06 7.83 16.17 7.93 16.28C8.59 17 9 17.95 9 19Z" stroke="white" stroke-width="1.5" stroke-miterlimit="10" stroke-linecap="round" stroke-linejoin="round"/>
</svg>
