<svg width="44" height="44" viewBox="0 0 44 44" fill="none" xmlns="http://www.w3.org/2000/svg">
<rect width="44" height="44" rx="22" fill="#0090F8"/>
<path d="M27 23.4V26.4C27 30.4 25.4 32 21.4 32H17.6C13.6 32 12 30.4 12 26.4V22.6C12 18.6 13.6 17 17.6 17H20.6" stroke="white" stroke-width="1.5" stroke-linecap="round" stroke-linejoin="round"/>
<path d="M21.6 12H25.6M17 15C17 13.34 18.34 12 20 12H22.62M32 18V24.19C32 25.74 30.74 27 29.19 27M32 18H29C26.75 18 26 17.25 26 15V12L32 18ZM27 23.4H23.8C21.4 23.4 20.6 22.6 20.6 20.2V17L27 23.4Z" stroke="white" stroke-width="1.5" stroke-linecap="round" stroke-linejoin="round"/>
</svg>
