<svg width="45" height="44" viewBox="0 0 45 44" fill="none" xmlns="http://www.w3.org/2000/svg">
<rect x="0.5" width="44" height="44" rx="22" fill="#0090F8"/>
<path d="M22.5 25C23.2956 25 24.0587 24.6839 24.6213 24.1213C25.1839 23.5587 25.5 22.7956 25.5 22C25.5 21.2044 25.1839 20.4413 24.6213 19.8787C24.0587 19.3161 23.2956 19 22.5 19C21.7044 19 20.9413 19.3161 20.3787 19.8787C19.8161 20.4413 19.5 21.2044 19.5 22C19.5 22.7956 19.8161 23.5587 20.3787 24.1213C20.9413 24.6839 21.7044 25 22.5 25Z" stroke="white" stroke-width="1.5" stroke-miterlimit="10" stroke-linecap="round" stroke-linejoin="round"/>
<path d="M12.5 22.8799V21.1199C12.5 20.0799 13.35 19.2199 14.4 19.2199C16.21 19.2199 16.95 17.9399 16.04 16.3699C15.52 15.4699 15.83 14.2999 16.74 13.7799L18.47 12.7899C19.26 12.3199 20.28 12.5999 20.75 13.3899L20.86 13.5799C21.76 15.1499 23.24 15.1499 24.15 13.5799L24.26 13.3899C24.73 12.5999 25.75 12.3199 26.54 12.7899L28.27 13.7799C29.18 14.2999 29.49 15.4699 28.97 16.3699C28.06 17.9399 28.8 19.2199 30.61 19.2199C31.65 19.2199 32.51 20.0699 32.51 21.1199V22.8799C32.51 23.9199 31.66 24.7799 30.61 24.7799C28.8 24.7799 28.06 26.0599 28.97 27.6299C29.49 28.5399 29.18 29.6999 28.27 30.2199L26.54 31.2099C25.75 31.6799 24.73 31.3999 24.26 30.6099L24.15 30.4199C23.25 28.8499 21.77 28.8499 20.86 30.4199L20.75 30.6099C20.28 31.3999 19.26 31.6799 18.47 31.2099L16.74 30.2199C16.3041 29.969 15.9856 29.5553 15.8543 29.0697C15.7231 28.5841 15.7899 28.0663 16.04 27.6299C16.95 26.0599 16.21 24.7799 14.4 24.7799C13.35 24.7799 12.5 23.9199 12.5 22.8799Z" stroke="white" stroke-width="1.5" stroke-miterlimit="10" stroke-linecap="round" stroke-linejoin="round"/>
</svg>
